<svg id="Capa_1" enable-background="new 0 0 497 497" height="512" viewBox="0 0 497 497" width="512" xmlns="http://www.w3.org/2000/svg"><g><path d="m248.5 407v90c59.923 0 108.5-20.147 108.5-45s-48.577-45-108.5-45z" fill="#42c967"/><path d="m327 452c0-24.853-35.146-45-78.5-45-59.923 0-108.5 20.147-108.5 45s48.577 45 108.5 45c43.354 0 78.5-20.147 78.5-45z" fill="#78d280"/><path d="m248.5 0v467c5.019 0 9.45-2.474 12.173-6.259l130.861-182.179c20.745-28.878 32.966-64.291 32.966-102.562 0-97.202-78.798-176-176-176z" fill="#ff0f04"/><path d="m258.598 460.741 108.555-182.179c17.209-28.878 27.347-64.291 27.347-102.562 0-97.202-65.366-176-146-176-97.202 0-176 78.798-176 176 0 38.271 12.221 73.684 32.966 102.562l130.861 182.179c2.723 3.785 7.155 6.259 12.173 6.259 4.163 0 7.839-2.474 10.098-6.259z" fill="#ff362d"/><path d="m248.5 67.5v217c59.923 0 108.5-48.577 108.5-108.5s-48.577-108.5-108.5-108.5z" fill="#baf7ff"/><path d="m327 176c0-59.923-35.146-108.5-78.5-108.5-59.923 0-108.5 48.577-108.5 108.5s48.577 108.5 108.5 108.5c43.354 0 78.5-48.577 78.5-108.5z" fill="#fff"/></g></svg>