<?xml version="1.0" encoding="iso-8859-1"?>
<!-- Generator: Adobe Illustrator 19.0.0, SVG Export Plug-In . SVG Version: 6.00 Build 0)  -->
<svg version="1.1" id="Layer_1" xmlns="http://www.w3.org/2000/svg" xmlns:xlink="http://www.w3.org/1999/xlink" x="0px" y="0px"
	 viewBox="0 0 512 512" style="enable-background:new 0 0 512 512;" xml:space="preserve">
<path style="fill:#FFFFFF;" d="M229.552,91.429c-45.371,0-82.286,36.915-82.286,82.286S184.181,256,229.552,256
	s82.286-36.915,82.286-82.286S274.922,91.429,229.552,91.429z M229.552,237.714c-35.29,0-64-28.71-64-64s28.71-64,64-64
	s64,28.71,64,64S264.842,237.714,229.552,237.714z"/>
<path style="fill:#5CB0FF;" d="M229.552,128c-25.205,0-45.714,20.509-45.714,45.714s20.509,45.714,45.714,45.714
	s45.714-20.509,45.714-45.714S254.757,128,229.552,128z"/>
<path style="fill:#D0E8FF;" d="M229.552,18.286C133.766,18.286,55.837,96.214,55.837,192c0,100.58,124.652,301.714,173.714,301.714
	S403.266,292.58,403.266,192C403.266,96.214,325.337,18.286,229.552,18.286z M229.552,274.286
	c-55.455,0-100.571-45.116-100.571-100.571S174.096,73.143,229.552,73.143s100.571,45.116,100.571,100.571
	S285.007,274.286,229.552,274.286z"/>
<g>
	<path style="fill:#1C71DA;" d="M229.552,0c-105.871,0-192,86.129-192,192c0,104.674,129.196,320,192,320s192-215.326,192-320
		C421.552,86.129,335.422,0,229.552,0z M229.552,493.714C180.489,493.714,55.837,292.58,55.837,192
		c0-95.786,77.929-173.714,173.714-173.714S403.266,96.214,403.266,192C403.266,292.58,278.614,493.714,229.552,493.714z"/>
	<path style="fill:#1C71DA;" d="M229.552,73.143c-55.455,0-100.571,45.116-100.571,100.571s45.116,100.571,100.571,100.571
		s100.571-45.116,100.571-100.571S285.007,73.143,229.552,73.143z M229.552,256c-45.371,0-82.286-36.915-82.286-82.286
		s36.915-82.286,82.286-82.286s82.286,36.915,82.286,82.286S274.922,256,229.552,256z"/>
	<path style="fill:#1C71DA;" d="M229.552,109.714c-35.29,0-64,28.71-64,64s28.71,64,64,64s64-28.71,64-64
		S264.842,109.714,229.552,109.714z M229.552,219.429c-25.205,0-45.714-20.509-45.714-45.714S204.347,128,229.552,128
		s45.714,20.509,45.714,45.714S254.757,219.429,229.552,219.429z"/>
</g>
<g>
	<path style="fill:#FF5D5D;" d="M47.871,491.429c-2.34,0-4.68-0.893-6.465-2.677c-3.57-3.571-3.57-9.359,0-12.931l32.325-32.325
		c3.571-3.569,9.359-3.569,12.931,0c3.57,3.571,3.57,9.359,0,12.931l-32.325,32.325C52.551,490.536,50.211,491.429,47.871,491.429z"
		/>
	<path style="fill:#FF5D5D;" d="M80.196,491.425c-2.34,0-4.68-0.893-6.465-2.677l-32.325-32.326c-3.57-3.571-3.57-9.36,0-12.931
		c3.574-3.569,9.362-3.568,12.931,0l32.325,32.326c3.57,3.571,3.57,9.36,0,12.931C84.875,490.532,82.535,491.425,80.196,491.425z"/>
</g>
<path style="fill:#00D40B;" d="M436.442,70.857c-17.645,0-32-14.355-32-32s14.355-32,32-32s32,14.355,32,32
	S454.088,70.857,436.442,70.857z M436.442,25.143c-7.563,0-13.714,6.152-13.714,13.714s6.152,13.714,13.714,13.714
	s13.714-6.152,13.714-13.714S444.005,25.143,436.442,25.143z"/>
<path style="fill:#FFC504;" d="M439.446,479.144c-2.339,0-4.68-0.893-6.464-2.677l-25.861-25.859
	c-1.715-1.715-2.679-4.04-2.679-6.465c0-2.425,0.963-4.75,2.679-6.465l25.861-25.859c3.571-3.569,9.36-3.568,12.93,0l25.859,25.859
	c3.57,3.571,3.57,9.359,0,12.931l-25.859,25.859C444.126,478.251,441.785,479.144,439.446,479.144z M426.515,444.142l12.931,12.93
	l12.93-12.93l-12.93-12.93L426.515,444.142z"/>
<g>
</g>
<g>
</g>
<g>
</g>
<g>
</g>
<g>
</g>
<g>
</g>
<g>
</g>
<g>
</g>
<g>
</g>
<g>
</g>
<g>
</g>
<g>
</g>
<g>
</g>
<g>
</g>
<g>
</g>
</svg>
